<svg xmlns="http://www.w3.org/2000/svg" xmlns:xlink="http://www.w3.org/1999/xlink" width="500" zoomAndPan="magnify" viewBox="0 0 375 374.999991" height="500" preserveAspectRatio="xMidYMid meet" version="1.0"><defs><clipPath id="68b16a6555"><path d="M 93 13 L 281 13 L 281 362.667969 L 93 362.667969 Z M 93 13 " clip-rule="nonzero"/></clipPath><clipPath id="e8469fde45"><path d="M 93 13 L 281 13 L 281 362.667969 L 93 362.667969 Z M 93 13 " clip-rule="nonzero"/></clipPath></defs><g clip-path="url(#68b16a6555)"><path fill="#000000" d="M 274.269531 215.652344 C 274.269531 215.628906 274.292969 215.628906 274.3125 215.605469 C 274.394531 215.605469 274.441406 215.652344 274.507812 215.652344 C 274.507812 215.652344 274.335938 215.652344 274.269531 215.652344 Z M 246.359375 100.554688 C 234.171875 93.695312 221.453125 86.90625 209.527344 79.578125 C 202.1875 75.078125 193.730469 73.03125 186.320312 68.605469 C 183.925781 67.167969 177.40625 63.714844 174.738281 60.878906 C 175.433594 58.925781 175.191406 56.59375 175.582031 54.523438 C 175.730469 53.726562 175.363281 53.097656 174.863281 52.695312 C 174.757812 52.480469 174.621094 52.261719 174.40625 52.089844 C 174.40625 52.042969 174.453125 52 174.453125 51.941406 C 174.453125 44.457031 177.476562 36.007812 172.546875 30.714844 C 172.578125 30.566406 172.625 30.441406 172.625 30.28125 C 172.625 18.246094 150.195312 13.71875 140.789062 13.890625 C 128.875 14.097656 105.210938 12.53125 103.523438 29.152344 C 103.5 29.265625 103.558594 29.34375 103.558594 29.4375 C 102.804688 30.15625 102.324219 31.070312 102.324219 32.398438 C 102.324219 38.820312 102.691406 45.210938 102.609375 51.65625 C 102.609375 51.929688 102.667969 52.136719 102.757812 52.351562 C 101.296875 54.707031 102.015625 58.078125 102.015625 61.578125 C 102.015625 61.964844 102.132812 62.273438 102.300781 62.539062 C 99.894531 73.066406 99.21875 84.664062 99.152344 95.375 C 99.082031 101.492188 99.300781 107.558594 99.734375 113.675781 C 100.257812 121.160156 96.433594 125.472656 94.894531 132.15625 C 92.589844 142.273438 95.019531 155.199219 95.476562 165.511719 C 96.046875 179.132812 96.777344 192.929688 95.089844 206.476562 C 93.523438 219.09375 96.265625 232.238281 95.375 245.027344 C 94.941406 251.324219 97.109375 258.023438 97.300781 264.332031 C 97.542969 272.035156 97.976562 279.695312 98.308594 287.386719 C 98.785156 299.457031 101.273438 312.992188 98.785156 324.878906 C 97.132812 332.890625 98.785156 344.160156 102.691406 351.429688 C 106.582031 358.675781 114.128906 360.195312 121.820312 361.066406 C 136.226562 362.652344 151.199219 361.898438 165.671875 361.921875 C 179.210938 361.921875 192.53125 361.660156 206.011719 360.390625 C 220.371094 359.066406 233.976562 360.4375 248.253906 360.460938 C 255.824219 360.480469 264.144531 361.542969 268.574219 353.933594 C 274.222656 344.308594 272.226562 332.820312 272.054688 322.132812 C 271.835938 308.511719 273.160156 294.429688 274.394531 280.847656 C 274.554688 279.042969 274.703125 277.238281 274.804688 275.453125 C 274.875 275.214844 274.875 274.972656 274.816406 274.757812 C 275.46875 263.511719 275.25 252.261719 276.164062 241.027344 C 276.460938 237.609375 277.371094 230.339844 275.855469 225.734375 C 276.550781 222.726562 276.503906 219.652344 276.632812 216.566406 C 276.675781 215.390625 276.769531 213.746094 276.289062 212.613281 C 277.726562 209.414062 277.851562 205.710938 276.835938 202.3125 C 277.054688 202.027344 277.203125 201.664062 277.203125 201.207031 C 277.203125 196.417969 276.984375 193.546875 276.917969 189.777344 C 277.15625 188.734375 277.203125 187.386719 277.179688 185.363281 C 277.15625 183.945312 277.246094 181.785156 276.699219 180.09375 C 276.835938 178.964844 276.917969 177.785156 276.917969 176.652344 C 276.917969 174.003906 276.917969 172.320312 276.917969 169.910156 C 276.917969 169.429688 276.699219 169.085938 276.378906 168.800781 C 277.15625 167.980469 277.726562 167.214844 277.921875 166.539062 C 278.480469 164.492188 278.59375 161.726562 277.726562 159.554688 C 278.113281 159.269531 278.398438 158.8125 278.398438 158.160156 C 278.421875 155.703125 278.652344 153.132812 277.828125 150.753906 C 278.765625 149.757812 279.347656 148.535156 279.851562 146.925781 C 281.871094 140.617188 279.128906 133.539062 278.398438 127.175781 C 276.746094 112.199219 257.167969 106.644531 246.359375 100.554688 " fill-opacity="1" fill-rule="nonzero"/></g><path fill="#ad0015" d="M 272.875 216.523438 C 272.832031 217.355469 272.703125 218.179688 272.703125 218.683594 C 272.703125 219.746094 272.726562 220.785156 272.703125 221.8125 C 270.980469 220.613281 268.664062 218.785156 270.226562 217.746094 C 271.050781 217.21875 271.984375 216.933594 272.875 216.523438 " fill-opacity="1" fill-rule="nonzero"/><path fill="#ad0015" d="M 274.679688 152.9375 C 274.875 154.070312 274.875 155.246094 274.851562 156.433594 C 272.898438 155.199219 272.375 154.285156 274.679688 152.9375 " fill-opacity="1" fill-rule="nonzero"/><path fill="#ad0015" d="M 272.101562 175.019531 C 272.101562 175.808594 272.316406 176.769531 272.488281 177.707031 C 267.921875 177.417969 269.484375 175.304688 272.101562 172.847656 C 272.101562 173.566406 272.101562 174.34375 272.101562 175.019531 " fill-opacity="1" fill-rule="nonzero"/><path fill="#ad0015" d="M 273.457031 194.175781 C 273.503906 195.652344 273.570312 197.183594 273.59375 198.964844 C 271.699219 197.914062 270.066406 197.113281 272.179688 195.261719 C 272.636719 194.851562 273.070312 194.484375 273.457031 194.175781 " fill-opacity="1" fill-rule="nonzero"/><path fill="#ad0015" d="M 268.6875 331.5625 C 268.664062 331.5625 268.640625 331.5625 268.617188 331.5625 C 258.425781 333.882812 248.277344 336.285156 238.109375 338.652344 C 227.4375 341.109375 214.8125 340.914062 204.617188 344.707031 C 216.066406 340.457031 228.15625 335.542969 238.757812 329.449219 C 243.804688 326.558594 249.078125 324.089844 254.316406 321.550781 C 259.167969 319.195312 263.835938 315.390625 268.8125 313.171875 C 268.59375 319.324219 268.527344 325.4375 268.6875 331.5625 " fill-opacity="1" fill-rule="nonzero"/><path fill="#ad0015" d="M 269.75 294.566406 C 269.441406 299.457031 269.15625 304.339844 268.9375 309.253906 C 263.289062 311.425781 257.84375 315.5625 252.488281 318.429688 C 245.640625 322.113281 238.621094 325.722656 231.648438 329.164062 C 224.457031 332.707031 216.910156 335.425781 209.59375 338.671875 C 206.949219 339.851562 202.164062 340.640625 200.382812 343.292969 C 198.945312 343.371094 197.460938 343.554688 195.96875 343.898438 C 199.882812 341.679688 203.75 339.371094 207.507812 336.980469 C 214.847656 332.320312 222.765625 328.101562 229.890625 323.175781 C 243.210938 313.949219 255.949219 303.070312 269.75 294.566406 " fill-opacity="1" fill-rule="nonzero"/><path fill="#ad0015" d="M 122.621094 151.257812 C 120.988281 158.023438 117.734375 164.59375 116.171875 171.453125 C 114.296875 179.730469 110.085938 187.316406 107.929688 195.398438 C 107.734375 195.617188 107.5625 195.867188 107.496094 196.222656 C 107.371094 196.679688 107.253906 197.113281 107.109375 197.546875 C 107.1875 194.347656 107.496094 190.210938 107.425781 189.167969 C 106.84375 181.316406 108.5 174.917969 112.277344 168.105469 C 115.472656 162.378906 119.058594 156.8125 122.621094 151.257812 " fill-opacity="1" fill-rule="nonzero"/><path fill="#ad0015" d="M 130.792969 129.757812 C 129.375 132.089844 128.121094 134.546875 127.035156 137.09375 C 120.988281 147.496094 112.78125 157.554688 107.5625 168.492188 C 107.425781 165.40625 107.425781 162.273438 107.425781 159.359375 C 107.425781 150.867188 111.890625 147.40625 117.335938 141.917969 C 121.945312 137.265625 125.964844 133.242188 130.792969 129.757812 " fill-opacity="1" fill-rule="nonzero"/><path fill="#ad0015" d="M 150.871094 111.457031 C 149.738281 112.007812 148.632812 112.566406 147.523438 113.195312 C 143.269531 115.652344 139.636719 118.636719 136.535156 122.03125 C 125.050781 127.78125 118.488281 135.941406 109.414062 144.84375 C 108.558594 145.691406 107.804688 146.457031 107.128906 147.234375 C 107.128906 143.597656 107.085938 139.140625 106.890625 136.285156 C 106.296875 126.714844 117.082031 123.859375 124.035156 120.75 C 129.730469 118.203125 134.730469 115.628906 140.640625 113.722656 C 143.988281 112.65625 147.398438 111.9375 150.871094 111.457031 " fill-opacity="1" fill-rule="nonzero"/><path fill="#ad0015" d="M 248.324219 292.667969 C 248.996094 289.84375 247.433594 287.226562 245.996094 285.011719 C 242.707031 279.933594 238.015625 275.933594 234.820312 270.632812 C 227.605469 258.789062 228.851562 242.136719 227.605469 228.671875 C 226.214844 213.539062 224.8125 198.371094 223.328125 183.226562 C 222.027344 169.863281 220.074219 156.570312 219.21875 143.164062 C 218.828125 137.222656 218.875 131.265625 218.394531 125.320312 C 218.132812 121.757812 218.761719 116.636719 217.242188 113.355469 C 214.242188 106.78125 207.335938 109 201.46875 109.71875 C 190.96875 111.046875 180.96875 115.183594 170.648438 117.355469 C 164.351562 118.660156 155.628906 120.394531 150.652344 124.863281 C 143.769531 131.046875 139.511719 140.808594 135.621094 149.0625 C 131.683594 157.441406 127.640625 165.339844 124.832031 174.242188 C 121.601562 184.496094 119.105469 194.679688 114.996094 204.644531 C 111.628906 215.046875 109.171875 223.140625 109.753906 234.214844 C 110.519531 248.730469 110.28125 263.316406 110.40625 277.855469 C 110.496094 291.84375 109.753906 305.835938 110.234375 319.792969 C 110.453125 325.699219 108.648438 341.542969 114.320312 345.703125 C 121.054688 350.628906 134.054688 348.800781 141.851562 348.789062 C 147.023438 348.753906 152.238281 348.859375 157.351562 348.113281 C 164.085938 347.097656 170.71875 347.792969 177.382812 346.8125 C 187.886719 345.292969 196.207031 335.324219 205.03125 330.410156 C 215.875 324.375 222.699219 313.320312 233.929688 307.46875 C 240.277344 304.15625 246.519531 299.984375 248.324219 292.667969 Z M 275.179688 130.351562 C 276.503906 135.65625 278.742188 145.519531 273.59375 149.40625 C 269.988281 152.089844 262.921875 154.960938 270.332031 158.914062 C 282.222656 165.210938 265.832031 168.296875 264.644531 174.847656 C 263.925781 178.964844 267.613281 181.339844 271.507812 181.339844 C 272.007812 181.339844 272.394531 181.441406 272.726562 181.613281 C 272.898438 182.015625 273.207031 182.335938 273.640625 182.550781 C 274.726562 185.078125 271.359375 190.929688 270.707031 191.582031 C 268.878906 193.480469 266.484375 195.136719 265.753906 197.832031 C 265.445312 198.941406 265.832031 200.792969 266.894531 201.421875 C 267.558594 201.8125 268.46875 202.222656 269.269531 202.164062 C 275.113281 201.664062 274.269531 208.53125 272.613281 212.109375 C 270.488281 216.714844 263.289062 214.523438 266.117188 221.789062 C 267.132812 224.363281 270.683594 223.289062 271.941406 226.535156 C 274.609375 233.4375 272.351562 242.96875 271.894531 250.125 C 271.359375 258.21875 271.1875 266.3125 270.902344 274.390625 C 267.15625 277.785156 259.726562 285.707031 255.082031 279.636719 C 251.964844 275.570312 249.945312 270.035156 248.277344 265.269531 C 247.433594 262.835938 246.121094 260.699219 244.773438 258.527344 C 241.28125 252.914062 241.167969 247.667969 241.0625 241.246094 C 240.757812 221.722656 241.953125 201.183594 238.734375 181.878906 C 235.800781 164.320312 239.5 146.628906 236.578125 129.105469 C 236.109375 126.238281 235.847656 123.253906 235.585938 120.246094 C 240.585938 121.277344 246.1875 124.078125 250.367188 126.429688 C 257.125 130.238281 260.160156 135.847656 260.378906 143.425781 C 260.445312 145.734375 264.050781 145.769531 263.984375 143.425781 C 263.765625 135.722656 261.691406 130.523438 255.664062 125.585938 C 250.492188 121.402344 242.035156 117.722656 235.21875 116.566406 C 234.410156 108.78125 232.800781 101.296875 226.132812 96.4375 C 218.566406 90.871094 202.359375 95.308594 193.796875 97.445312 C 182.316406 100.335938 170.511719 103.078125 159.476562 107.515625 C 159.179688 107.195312 158.78125 107 158.199219 107.058594 C 151.632812 107.433594 146.109375 108.625 139.707031 110.132812 C 131.398438 112.109375 124.730469 116.464844 116.867188 119.710938 C 110.496094 122.363281 106.605469 124.601562 103.695312 131.082031 C 102.757812 133.175781 103.316406 136.398438 103.433594 138.546875 C 103.742188 143.210938 103.523438 148.238281 103.523438 153.0625 C 103.523438 153.417969 103.625 153.703125 103.742188 153.953125 C 103.625 154.835938 103.523438 155.761719 103.558594 156.8125 C 103.648438 163.074219 103.71875 169.820312 104.652344 176.046875 C 103.285156 181.558594 103.648438 187.386719 104.105469 193.066406 C 104.414062 196.851562 102.152344 201.960938 105.625 204.578125 C 106.433594 205.207031 107.5625 204.644531 108.078125 203.925781 C 109.171875 202.359375 109.925781 200.703125 110.476562 198.917969 C 110.691406 198.703125 110.886719 198.441406 110.953125 198.074219 C 112.6875 190.425781 116.84375 183.203125 118.945312 175.589844 C 120.964844 168.128906 122.925781 160.902344 125.507812 153.65625 C 129.058594 143.621094 131.316406 133.941406 138.003906 125.320312 C 138.144531 125.253906 138.246094 125.183594 138.394531 125.128906 C 138.964844 124.84375 139.226562 124.363281 139.285156 123.882812 C 144.683594 117.835938 152.671875 114.050781 160.046875 111.023438 C 174.40625 105.101562 190.203125 101.949219 205.394531 99.136719 C 213.394531 97.640625 221.066406 96.289062 227.390625 102.074219 C 232.390625 106.644531 232.128906 121.253906 232.730469 127.78125 C 233.472656 135.609375 234.410156 143.074219 233.886719 150.9375 C 233.324219 159.359375 233.015625 168.171875 233.976562 176.550781 C 235.082031 186.105469 236.625 195.042969 236.648438 204.75 C 236.691406 214.785156 237.34375 224.820312 237.410156 234.867188 C 237.492188 241.394531 236.066406 250.171875 239.261719 256.195312 C 242.890625 262.984375 245.800781 269.910156 249.292969 276.78125 C 250.777344 279.695312 253.644531 286.027344 257.945312 285.855469 C 263.164062 285.636719 266.984375 282.574219 270.707031 279.304688 C 270.570312 282.117188 270.421875 284.941406 270.226562 287.753906 C 270.160156 288.597656 270.113281 289.433594 270.066406 290.300781 C 269.851562 290.324219 269.601562 290.40625 269.382812 290.519531 C 254.921875 299.238281 242.558594 311.320312 228.0625 320.066406 C 214.117188 328.488281 200.382812 337.828125 185.84375 345.292969 C 184.953125 345.773438 184.816406 346.617188 185.101562 347.335938 C 184.976562 348.308594 185.511719 349.316406 186.753906 349.269531 C 189.234375 349.167969 191.46875 348.230469 193.921875 347.941406 C 195.054688 347.792969 196.378906 347.484375 197.460938 347.121094 C 198.636719 346.742188 199.597656 346.8125 201.207031 346.835938 C 209.699219 350.101562 221.476562 344.9375 229.914062 343.632812 C 243.164062 341.632812 255.730469 338.214844 268.765625 335.257812 C 268.902344 341.828125 268.59375 348.183594 264.222656 353.691406 C 260.296875 358.628906 247.820312 356.9375 242.296875 356.722656 C 227.675781 356.105469 213.980469 356.046875 199.335938 357.394531 C 182.507812 358.9375 165.480469 358.390625 148.609375 358.21875 C 140.675781 358.148438 132.722656 357.957031 124.777344 357.625 C 118.988281 357.394531 110.667969 356.675781 106.800781 351.476562 C 104.777344 348.730469 104.058594 344.640625 103.316406 341.394531 C 101.539062 333.839844 102.425781 327.1875 103.214844 319.675781 C 104.035156 312.066406 102.472656 304.179688 102.015625 296.589844 C 101.023438 280.414062 101.171875 264.308594 99.152344 248.207031 C 98.238281 240.902344 99.847656 233.199219 99.347656 225.769531 C 98.742188 217.046875 98.386719 208.910156 99.496094 200.222656 C 101.457031 184.792969 99.082031 167.957031 98.523438 152.457031 C 98.261719 145.40625 96.628906 135.609375 99.710938 129.058594 C 102.300781 123.515625 103.582031 120.03125 103.339844 113.675781 C 102.714844 97.03125 102.0625 79.511719 105.863281 63.144531 C 125.90625 57.246094 150.914062 56.332031 171.105469 62.035156 C 173.753906 66.171875 180.535156 69.328125 184.496094 71.714844 C 188.46875 74.09375 192.863281 76.332031 197.1875 77.96875 C 202.859375 80.140625 207.597656 83.339844 213.089844 85.695312 C 220.109375 88.757812 226.214844 93.351562 233.085938 96.679688 C 237.992188 99.054688 242.21875 102.359375 246.953125 105.035156 C 252.320312 108.0625 258.039062 110.371094 263.355469 113.433594 C 270.707031 117.699219 273.160156 122.339844 275.179688 130.351562 " fill-opacity="1" fill-rule="nonzero"/><path fill="#f2f2f2" d="M 229.023438 267.167969 C 232.390625 275.742188 249.03125 289.777344 241.109375 298.304688 C 237.605469 302.109375 232.128906 304.269531 227.699219 306.773438 C 223.28125 309.277344 219.457031 313.011719 215.828125 316.453125 C 206.980469 324.855469 196.925781 331.90625 186.777344 338.671875 C 179.714844 343.371094 173.320312 343.609375 165.195312 343.53125 C 158.484375 343.484375 151.78125 345.050781 145.027344 345.121094 C 138.679688 345.222656 132.378906 345.175781 126.054688 344.765625 C 115.3125 344.070312 114.878906 339.53125 114.515625 329.816406 C 113.96875 314.773438 113.933594 299.914062 114.035156 284.863281 C 114.105469 270.859375 113.726562 256.871094 113.726562 242.878906 C 113.75 236.957031 113.101562 231.082031 113.144531 225.164062 C 113.191406 219.160156 116.582031 211.433594 118.488281 205.59375 C 122.90625 194.875 125.597656 183.820312 129.078125 172.800781 C 132.8125 160.925781 139.113281 149.371094 145.332031 138.617188 C 149.785156 130.980469 153.175781 126.773438 161.691406 123.492188 C 166.828125 121.550781 172.257812 121.117188 177.476562 119.550781 C 187.839844 116.464844 198.832031 112.636719 209.742188 112.394531 C 217.460938 112.199219 215.53125 141.941406 215.828125 146.511719 C 216.671875 159.898438 218.761719 173.191406 220.050781 186.519531 C 221.433594 200.578125 222.699219 214.613281 224 228.671875 C 225.152344 241.117188 224.386719 255.394531 229.023438 267.167969 " fill-opacity="1" fill-rule="nonzero"/><g clip-path="url(#e8469fde45)"><path fill="#000000" d="M 106.238281 49.828125 C 107.085938 49.460938 107.953125 49.128906 108.84375 48.820312 C 108.214844 48.570312 107.710938 48.023438 107.710938 47.128906 C 107.710938 42.992188 107.425781 37.09375 107.78125 31.675781 C 106.171875 33.242188 105.542969 35.503906 105.933594 39.3125 C 106.273438 42.820312 106.273438 46.320312 106.238281 49.828125 Z M 116.605469 46.5 C 115.90625 43.5625 115.839844 40.339844 115.839844 37.355469 C 115.839844 34.25 115.839844 31.550781 115.839844 28.132812 C 115.644531 28.191406 115.453125 28.234375 115.28125 28.28125 C 113.886719 28.695312 112.667969 29.070312 111.582031 29.503906 C 110.953125 35.425781 111.320312 42.464844 111.320312 47.128906 C 111.320312 47.496094 111.214844 47.78125 111.078125 48.042969 C 112.90625 47.449219 114.753906 46.9375 116.605469 46.5 Z M 116.171875 171.453125 C 117.734375 164.59375 120.988281 158.023438 122.621094 151.257812 C 119.058594 156.8125 115.472656 162.378906 112.277344 168.105469 C 108.5 174.917969 106.84375 181.316406 107.425781 189.167969 C 107.496094 190.210938 107.1875 194.347656 107.109375 197.546875 C 107.253906 197.113281 107.371094 196.679688 107.496094 196.222656 C 107.5625 195.867188 107.734375 195.617188 107.929688 195.398438 C 110.085938 187.316406 114.296875 179.730469 116.171875 171.453125 Z M 123.054688 44.339844 C 123.074219 38.398438 124.101562 31.195312 124.230469 26.363281 C 123.007812 26.542969 121.820312 26.761719 120.644531 26.980469 C 120.644531 30.785156 120.644531 32.808594 120.644531 35.769531 C 120.644531 38.902344 119.824219 42.625 120.578125 45.691406 C 121.511719 45.542969 122.449219 45.394531 123.339844 45.300781 C 123.167969 45.039062 123.054688 44.753906 123.054688 44.339844 Z M 127.035156 137.09375 C 128.121094 134.546875 129.375 132.089844 130.792969 129.757812 C 125.964844 133.242188 121.945312 137.265625 117.335938 141.917969 C 111.890625 147.40625 107.425781 150.867188 107.425781 159.359375 C 107.425781 162.273438 107.425781 165.40625 107.5625 168.492188 C 112.78125 157.554688 120.988281 147.496094 127.035156 137.09375 Z M 132.664062 34.683594 C 132.664062 31.609375 132.664062 28.542969 132.664062 25.492188 C 131.054688 25.5625 129.445312 25.699219 127.859375 25.871094 C 127.789062 30.714844 126.683594 38.125 126.660156 44.273438 C 126.660156 44.582031 126.578125 44.84375 126.464844 45.085938 C 128.167969 44.957031 129.902344 44.890625 131.613281 44.890625 C 131.578125 44.753906 131.535156 44.605469 131.535156 44.433594 C 131.660156 41.164062 132.664062 37.984375 132.664062 34.683594 Z M 138.460938 45.128906 C 138.988281 38.558594 139.570312 32.179688 139.570312 25.539062 C 138.097656 25.4375 136.613281 25.414062 135.070312 25.414062 C 135.070312 25.4375 135.070312 25.4375 135.070312 25.46875 C 135.070312 28.957031 135.070312 32.441406 135.070312 35.941406 C 135.070312 38.796875 134.707031 41.597656 134.617188 44.433594 C 134.617188 44.625 134.570312 44.777344 134.523438 44.933594 C 135.835938 44.957031 137.136719 45.039062 138.460938 45.128906 Z M 148.289062 26.738281 C 147.070312 26.523438 145.871094 26.328125 144.660156 26.109375 C 144.179688 26.019531 143.679688 25.972656 143.175781 25.917969 C 143.140625 32.523438 142.570312 38.855469 142.046875 45.394531 C 144.042969 45.585938 146.007812 45.859375 148.003906 46.148438 C 148.027344 39.746094 148.246094 33.378906 148.289062 26.738281 Z M 147.523438 113.195312 C 148.632812 112.566406 149.738281 112.007812 150.871094 111.457031 C 147.398438 111.9375 143.988281 112.65625 140.640625 113.722656 C 134.730469 115.628906 129.730469 118.203125 124.035156 120.75 C 117.082031 123.859375 106.296875 126.714844 106.890625 136.285156 C 107.085938 139.140625 107.128906 143.597656 107.128906 147.234375 C 107.804688 146.457031 108.558594 145.691406 109.414062 144.84375 C 118.488281 135.941406 125.050781 127.78125 136.535156 122.03125 C 139.636719 118.636719 143.269531 115.652344 147.523438 113.195312 Z M 155.847656 47.496094 C 155.34375 44.71875 155.503906 41.839844 155.503906 39.015625 C 155.503906 35.3125 155.285156 31.609375 155.21875 27.917969 C 154.089844 27.710938 152.980469 27.515625 151.875 27.320312 C 151.828125 33.894531 151.632812 40.363281 151.613281 46.671875 C 151.613281 46.695312 151.589844 46.695312 151.589844 46.71875 C 153.003906 46.96875 154.417969 47.199219 155.847656 47.496094 Z M 142.878906 22.144531 C 150.960938 22.796875 161.109375 24.257812 168.539062 27.9375 C 165.410156 20.144531 147.113281 17.492188 140.789062 17.492188 C 132.253906 17.492188 110.816406 15.984375 107.519531 27.21875 C 107.609375 27.171875 107.710938 27.128906 107.804688 27.082031 C 110.554688 25.800781 113.601562 24.820312 116.773438 24.019531 C 117.253906 23.777344 117.800781 23.664062 118.363281 23.6875 C 126.511719 21.925781 135.460938 21.5625 142.878906 22.144531 Z M 164.210938 30.28125 C 164.234375 30.238281 164.257812 30.179688 164.257812 30.132812 C 163.9375 30.019531 163.628906 29.917969 163.300781 29.800781 C 161.804688 29.34375 160.332031 28.957031 158.824219 28.613281 C 158.917969 32.089844 159.109375 35.550781 159.109375 39.015625 C 159.109375 42.03125 158.78125 45.234375 159.636719 48.171875 C 159.660156 48.214844 159.636719 48.261719 159.660156 48.308594 C 160.890625 48.570312 162.136719 48.84375 163.367188 49.152344 C 163.5625 48.171875 163.609375 46.148438 163.609375 45.621094 C 163.628906 43.78125 163.628906 41.929688 163.628906 40.101562 C 163.628906 36.730469 163.972656 33.597656 164.210938 30.28125 Z M 170.867188 51.003906 C 170.9375 47.015625 171.425781 43.039062 171.425781 38.992188 C 171.425781 35.046875 170.195312 33.027344 167.738281 31.609375 C 167.453125 35.425781 167.238281 39.164062 167.238281 43.015625 C 167.238281 45.234375 167.363281 47.757812 166.804688 49.976562 C 168.152344 50.308594 169.519531 50.652344 170.867188 51.003906 Z M 171.609375 58.445312 C 171.78125 57.335938 171.824219 56.136719 171.929688 55.027344 C 159.828125 51.851562 147.046875 49.003906 134.546875 48.695312 C 128.050781 48.546875 121.683594 49.003906 115.40625 50.742188 C 112.210938 51.65625 108.648438 52.457031 105.625 53.941406 C 105.359375 54.089844 105.429688 57.269531 105.519531 59.484375 C 125.964844 53.609375 151.050781 52.71875 171.609375 58.445312 Z M 268.617188 331.5625 C 268.640625 331.5625 268.664062 331.5625 268.6875 331.5625 C 268.527344 325.4375 268.59375 319.324219 268.8125 313.171875 C 263.835938 315.390625 259.167969 319.195312 254.316406 321.550781 C 249.078125 324.089844 243.804688 326.558594 238.757812 329.449219 C 228.15625 335.542969 216.066406 340.457031 204.617188 344.707031 C 214.8125 340.914062 227.4375 341.109375 238.109375 338.652344 C 248.277344 336.285156 258.425781 333.882812 268.617188 331.5625 Z M 268.9375 309.253906 C 269.15625 304.339844 269.441406 299.457031 269.75 294.566406 C 255.949219 303.070312 243.210938 313.949219 229.890625 323.175781 C 222.765625 328.101562 214.847656 332.320312 207.507812 336.980469 C 203.75 339.371094 199.882812 341.679688 195.96875 343.898438 C 197.460938 343.554688 198.945312 343.371094 200.382812 343.292969 C 202.164062 340.640625 206.949219 339.851562 209.59375 338.671875 C 216.910156 335.425781 224.457031 332.707031 231.648438 329.164062 C 238.621094 325.722656 245.640625 322.113281 252.488281 318.429688 C 257.84375 315.5625 263.289062 311.425781 268.9375 309.253906 Z M 272.488281 177.707031 C 272.316406 176.769531 272.101562 175.808594 272.101562 175.019531 C 272.101562 174.34375 272.101562 173.566406 272.101562 172.847656 C 269.484375 175.304688 267.921875 177.417969 272.488281 177.707031 Z M 272.703125 218.683594 C 272.703125 218.179688 272.832031 217.355469 272.875 216.523438 C 271.984375 216.933594 271.050781 217.21875 270.226562 217.746094 C 268.664062 218.785156 270.980469 220.613281 272.703125 221.8125 C 272.726562 220.785156 272.703125 219.746094 272.703125 218.683594 Z M 273.59375 198.964844 C 273.570312 197.183594 273.503906 195.652344 273.457031 194.175781 C 273.070312 194.484375 272.636719 194.851562 272.179688 195.261719 C 270.066406 197.113281 271.699219 197.914062 273.59375 198.964844 Z M 274.269531 215.652344 C 274.335938 215.652344 274.507812 215.652344 274.507812 215.652344 C 274.441406 215.652344 274.394531 215.605469 274.3125 215.605469 C 274.292969 215.628906 274.269531 215.628906 274.269531 215.652344 Z M 274.851562 156.433594 C 274.875 155.246094 274.875 154.070312 274.679688 152.9375 C 272.375 154.285156 272.898438 155.199219 274.851562 156.433594 Z M 273.59375 149.40625 C 278.742188 145.519531 276.503906 135.65625 275.179688 130.351562 C 273.160156 122.339844 270.707031 117.699219 263.355469 113.433594 C 258.039062 110.371094 252.320312 108.0625 246.953125 105.035156 C 242.21875 102.359375 237.992188 99.054688 233.085938 96.679688 C 226.214844 93.351562 220.109375 88.757812 213.089844 85.695312 C 207.597656 83.339844 202.859375 80.140625 197.1875 77.96875 C 192.863281 76.332031 188.46875 74.09375 184.496094 71.714844 C 180.535156 69.328125 173.753906 66.171875 171.105469 62.035156 C 150.914062 56.332031 125.90625 57.246094 105.863281 63.144531 C 102.0625 79.511719 102.714844 97.03125 103.339844 113.675781 C 103.582031 120.03125 102.300781 123.515625 99.710938 129.058594 C 96.628906 135.609375 98.261719 145.40625 98.523438 152.457031 C 99.082031 167.957031 101.457031 184.792969 99.496094 200.222656 C 98.386719 208.910156 98.742188 217.046875 99.347656 225.769531 C 99.847656 233.199219 98.238281 240.902344 99.152344 248.207031 C 101.171875 264.308594 101.023438 280.414062 102.015625 296.589844 C 102.472656 304.179688 104.035156 312.066406 103.214844 319.675781 C 102.425781 327.1875 101.539062 333.839844 103.316406 341.394531 C 104.058594 344.640625 104.777344 348.730469 106.800781 351.476562 C 110.667969 356.675781 118.988281 357.394531 124.777344 357.625 C 132.722656 357.957031 140.675781 358.148438 148.609375 358.21875 C 165.480469 358.390625 182.507812 358.9375 199.335938 357.394531 C 213.980469 356.046875 227.675781 356.105469 242.296875 356.722656 C 247.820312 356.9375 260.296875 358.628906 264.222656 353.691406 C 268.59375 348.183594 268.902344 341.828125 268.765625 335.257812 C 255.730469 338.214844 243.164062 341.632812 229.914062 343.632812 C 221.476562 344.9375 209.699219 350.101562 201.207031 346.835938 C 199.597656 346.8125 198.636719 346.742188 197.460938 347.121094 C 196.378906 347.484375 195.054688 347.792969 193.921875 347.941406 C 191.46875 348.230469 189.234375 349.167969 186.753906 349.269531 C 185.511719 349.316406 184.976562 348.308594 185.101562 347.335938 C 184.816406 346.617188 184.953125 345.773438 185.84375 345.292969 C 200.382812 337.828125 214.117188 328.488281 228.0625 320.066406 C 242.558594 311.320312 254.921875 299.238281 269.382812 290.519531 C 269.601562 290.40625 269.851562 290.324219 270.066406 290.300781 C 270.113281 289.433594 270.160156 288.597656 270.226562 287.753906 C 270.421875 284.941406 270.570312 282.117188 270.707031 279.304688 C 266.984375 282.574219 263.164062 285.636719 257.945312 285.855469 C 253.644531 286.027344 250.777344 279.695312 249.292969 276.78125 C 245.800781 269.910156 242.890625 262.984375 239.261719 256.195312 C 236.066406 250.171875 237.492188 241.394531 237.410156 234.867188 C 237.34375 224.820312 236.691406 214.785156 236.648438 204.75 C 236.625 195.042969 235.082031 186.105469 233.976562 176.550781 C 233.015625 168.171875 233.324219 159.359375 233.886719 150.9375 C 234.410156 143.074219 233.472656 135.609375 232.730469 127.78125 C 232.128906 121.253906 232.390625 106.644531 227.390625 102.074219 C 221.066406 96.289062 213.394531 97.640625 205.394531 99.136719 C 190.203125 101.949219 174.40625 105.101562 160.046875 111.023438 C 152.671875 114.050781 144.683594 117.835938 139.285156 123.882812 C 139.226562 124.363281 138.964844 124.84375 138.394531 125.128906 C 138.246094 125.183594 138.144531 125.253906 138.003906 125.320312 C 131.316406 133.941406 129.058594 143.621094 125.507812 153.65625 C 122.925781 160.902344 120.964844 168.128906 118.945312 175.589844 C 116.84375 183.203125 112.6875 190.425781 110.953125 198.074219 C 110.886719 198.441406 110.691406 198.703125 110.476562 198.917969 C 109.925781 200.703125 109.171875 202.359375 108.078125 203.925781 C 107.5625 204.644531 106.433594 205.207031 105.625 204.578125 C 102.152344 201.960938 104.414062 196.851562 104.105469 193.066406 C 103.648438 187.386719 103.285156 181.558594 104.652344 176.046875 C 103.71875 169.820312 103.648438 163.074219 103.558594 156.8125 C 103.523438 155.761719 103.625 154.835938 103.742188 153.953125 C 103.625 153.703125 103.523438 153.417969 103.523438 153.0625 C 103.523438 148.238281 103.742188 143.210938 103.433594 138.546875 C 103.316406 136.398438 102.757812 133.175781 103.695312 131.082031 C 106.605469 124.601562 110.496094 122.363281 116.867188 119.710938 C 124.730469 116.464844 131.398438 112.109375 139.707031 110.132812 C 146.109375 108.625 151.632812 107.433594 158.199219 107.058594 C 158.78125 107 159.179688 107.195312 159.476562 107.515625 C 170.511719 103.078125 182.316406 100.335938 193.796875 97.445312 C 202.359375 95.308594 218.566406 90.871094 226.132812 96.4375 C 232.800781 101.296875 234.410156 108.78125 235.21875 116.566406 C 242.035156 117.722656 250.492188 121.402344 255.664062 125.585938 C 261.691406 130.523438 263.765625 135.722656 263.984375 143.425781 C 264.050781 145.769531 260.445312 145.734375 260.378906 143.425781 C 260.160156 135.847656 257.125 130.238281 250.367188 126.429688 C 246.1875 124.078125 240.585938 121.277344 235.585938 120.246094 C 235.847656 123.253906 236.109375 126.238281 236.578125 129.105469 C 239.5 146.628906 235.800781 164.320312 238.734375 181.878906 C 241.953125 201.183594 240.757812 221.722656 241.0625 241.246094 C 241.167969 247.667969 241.28125 252.914062 244.773438 258.527344 C 246.121094 260.699219 247.433594 262.835938 248.277344 265.269531 C 249.945312 270.035156 251.964844 275.570312 255.082031 279.636719 C 259.726562 285.707031 267.15625 277.785156 270.902344 274.390625 C 271.1875 266.3125 271.359375 258.21875 271.894531 250.125 C 272.351562 242.96875 274.609375 233.4375 271.941406 226.535156 C 270.683594 223.289062 267.132812 224.363281 266.117188 221.789062 C 263.289062 214.523438 270.488281 216.714844 272.613281 212.109375 C 274.269531 208.53125 275.113281 201.664062 269.269531 202.164062 C 268.46875 202.222656 267.558594 201.8125 266.894531 201.421875 C 265.832031 200.792969 265.445312 198.941406 265.753906 197.832031 C 266.484375 195.136719 268.878906 193.480469 270.707031 191.582031 C 271.359375 190.929688 274.726562 185.078125 273.640625 182.550781 C 273.207031 182.335938 272.898438 182.015625 272.726562 181.613281 C 272.394531 181.441406 272.007812 181.339844 271.507812 181.339844 C 267.613281 181.339844 263.925781 178.964844 264.644531 174.847656 C 265.832031 168.296875 282.222656 165.210938 270.332031 158.914062 C 262.921875 154.960938 269.988281 152.089844 273.59375 149.40625 Z M 278.398438 127.175781 C 279.128906 133.539062 281.871094 140.617188 279.851562 146.925781 C 279.335938 148.535156 278.765625 149.757812 277.828125 150.753906 C 278.652344 153.132812 278.421875 155.703125 278.398438 158.160156 C 278.398438 158.8125 278.113281 159.269531 277.726562 159.554688 C 278.59375 161.726562 278.480469 164.492188 277.921875 166.539062 C 277.726562 167.214844 277.15625 167.988281 276.378906 168.800781 C 276.699219 169.085938 276.917969 169.429688 276.917969 169.910156 C 276.917969 172.320312 276.917969 174.003906 276.917969 176.652344 C 276.917969 177.785156 276.835938 178.964844 276.699219 180.09375 C 277.246094 181.785156 277.15625 183.945312 277.179688 185.363281 C 277.203125 187.386719 277.15625 188.734375 276.917969 189.777344 C 276.984375 193.546875 277.203125 196.417969 277.203125 201.207031 C 277.203125 201.664062 277.054688 202.027344 276.835938 202.3125 C 277.851562 205.710938 277.726562 209.414062 276.289062 212.625 C 276.769531 213.746094 276.675781 215.390625 276.632812 216.566406 C 276.503906 219.652344 276.550781 222.726562 275.855469 225.734375 C 277.371094 230.339844 276.460938 237.609375 276.164062 241.027344 C 275.25 252.261719 275.46875 263.511719 274.816406 274.757812 C 274.875 274.972656 274.875 275.214844 274.804688 275.453125 C 274.703125 277.238281 274.554688 279.042969 274.394531 280.847656 C 273.160156 294.429688 271.835938 308.511719 272.054688 322.132812 C 272.226562 332.820312 274.222656 344.308594 268.574219 353.933594 C 264.144531 361.542969 255.835938 360.480469 248.253906 360.460938 C 233.976562 360.4375 220.371094 359.066406 206.011719 360.390625 C 192.53125 361.660156 179.210938 361.921875 165.671875 361.921875 C 151.199219 361.898438 136.226562 362.652344 121.820312 361.066406 C 114.128906 360.195312 106.582031 358.675781 102.691406 351.429688 C 98.796875 344.160156 97.132812 332.890625 98.796875 324.878906 C 101.273438 312.992188 98.796875 299.457031 98.308594 287.386719 C 97.976562 279.695312 97.542969 272.035156 97.300781 264.332031 C 97.109375 258.023438 94.941406 251.324219 95.375 245.027344 C 96.265625 232.238281 93.523438 219.09375 95.089844 206.476562 C 96.777344 192.929688 96.046875 179.132812 95.476562 165.511719 C 95.019531 155.199219 92.589844 142.273438 94.894531 132.15625 C 96.433594 125.472656 100.257812 121.160156 99.734375 113.675781 C 99.300781 107.558594 99.082031 101.492188 99.152344 95.375 C 99.21875 84.664062 99.894531 73.066406 102.300781 62.539062 C 102.132812 62.273438 102.015625 61.964844 102.015625 61.578125 C 102.015625 58.078125 101.296875 54.707031 102.757812 52.351562 C 102.667969 52.136719 102.609375 51.929688 102.609375 51.65625 C 102.691406 45.210938 102.324219 38.820312 102.324219 32.398438 C 102.324219 31.070312 102.804688 30.15625 103.558594 29.4375 C 103.558594 29.34375 103.5 29.265625 103.523438 29.152344 C 105.210938 12.53125 128.875 14.097656 140.789062 13.890625 C 150.195312 13.71875 172.625 18.246094 172.625 30.28125 C 172.625 30.441406 172.578125 30.566406 172.546875 30.714844 C 177.476562 36.007812 174.453125 44.457031 174.453125 51.941406 C 174.453125 52 174.40625 52.042969 174.40625 52.089844 C 174.621094 52.261719 174.757812 52.480469 174.863281 52.695312 C 175.363281 53.097656 175.730469 53.726562 175.582031 54.523438 C 175.191406 56.59375 175.433594 58.925781 174.738281 60.878906 C 177.40625 63.714844 183.925781 67.167969 186.320312 68.605469 C 193.730469 73.03125 202.1875 75.078125 209.527344 79.578125 C 221.453125 86.90625 234.171875 93.695312 246.359375 100.554688 C 257.167969 106.644531 276.746094 112.199219 278.398438 127.175781 " fill-opacity="1" fill-rule="nonzero"/></g><path fill="#000000" d="M 241.109375 298.304688 C 249.03125 289.777344 232.390625 275.742188 229.023438 267.167969 C 224.386719 255.394531 225.152344 241.117188 224 228.671875 C 222.699219 214.613281 221.433594 200.578125 220.050781 186.519531 C 218.761719 173.191406 216.671875 159.898438 215.828125 146.511719 C 215.53125 141.941406 217.460938 112.199219 209.742188 112.394531 C 198.832031 112.636719 187.839844 116.464844 177.476562 119.550781 C 172.257812 121.117188 166.828125 121.550781 161.691406 123.492188 C 153.175781 126.773438 149.785156 130.980469 145.332031 138.617188 C 139.113281 149.371094 132.8125 160.925781 129.078125 172.800781 C 125.597656 183.820312 122.90625 194.875 118.488281 205.59375 C 116.582031 211.433594 113.191406 219.160156 113.144531 225.164062 C 113.101562 231.082031 113.75 236.957031 113.726562 242.878906 C 113.726562 256.871094 114.105469 270.859375 114.035156 284.863281 C 113.933594 299.914062 113.96875 314.773438 114.515625 329.816406 C 114.878906 339.53125 115.3125 344.070312 126.054688 344.765625 C 132.378906 345.175781 138.679688 345.222656 145.027344 345.121094 C 151.78125 345.050781 158.484375 343.484375 165.195312 343.53125 C 173.320312 343.609375 179.714844 343.371094 186.777344 338.671875 C 196.925781 331.90625 206.980469 324.855469 215.828125 316.453125 C 219.457031 313.011719 223.28125 309.277344 227.699219 306.773438 C 232.128906 304.269531 237.605469 302.109375 241.109375 298.304688 Z M 245.996094 285.011719 C 247.433594 287.226562 248.996094 289.84375 248.324219 292.667969 C 246.519531 299.984375 240.277344 304.15625 233.929688 307.46875 C 222.699219 313.320312 215.875 324.375 205.03125 330.410156 C 196.207031 335.324219 187.886719 345.292969 177.382812 346.8125 C 170.71875 347.792969 164.085938 347.097656 157.351562 348.113281 C 152.238281 348.859375 147.023438 348.753906 141.851562 348.789062 C 134.054688 348.800781 121.054688 350.628906 114.320312 345.703125 C 108.648438 341.542969 110.453125 325.699219 110.234375 319.792969 C 109.753906 305.835938 110.496094 291.84375 110.40625 277.855469 C 110.28125 263.316406 110.519531 248.730469 109.753906 234.214844 C 109.171875 223.140625 111.628906 215.046875 114.996094 204.644531 C 119.105469 194.679688 121.601562 184.496094 124.832031 174.242188 C 127.640625 165.339844 131.683594 157.441406 135.621094 149.0625 C 139.511719 140.808594 143.769531 131.046875 150.652344 124.863281 C 155.628906 120.394531 164.351562 118.660156 170.648438 117.355469 C 180.96875 115.183594 190.96875 111.046875 201.46875 109.71875 C 207.335938 109 214.242188 106.78125 217.242188 113.355469 C 218.761719 116.636719 218.132812 121.757812 218.394531 125.320312 C 218.875 131.265625 218.828125 137.222656 219.21875 143.164062 C 220.074219 156.570312 222.027344 169.863281 223.328125 183.226562 C 224.8125 198.371094 226.214844 213.539062 227.605469 228.671875 C 228.851562 242.136719 227.605469 258.789062 234.820312 270.632812 C 238.015625 275.933594 242.707031 279.933594 245.996094 285.011719 " fill-opacity="1" fill-rule="nonzero"/><path fill="#4d4d4d" d="M 171.929688 55.027344 C 171.824219 56.136719 171.78125 57.335938 171.609375 58.445312 C 151.050781 52.71875 125.964844 53.609375 105.519531 59.484375 C 105.429688 57.269531 105.359375 54.089844 105.625 53.941406 C 108.648438 52.457031 112.210938 51.65625 115.40625 50.742188 C 121.683594 49.003906 128.050781 48.546875 134.546875 48.695312 C 147.046875 49.003906 159.828125 51.851562 171.929688 55.027344 " fill-opacity="1" fill-rule="nonzero"/><path fill="#4d4d4d" d="M 171.425781 38.992188 C 171.425781 43.039062 170.9375 47.015625 170.867188 51.003906 C 169.519531 50.652344 168.152344 50.308594 166.804688 49.976562 C 167.363281 47.757812 167.238281 45.234375 167.238281 43.015625 C 167.238281 39.164062 167.453125 35.425781 167.738281 31.609375 C 170.195312 33.027344 171.425781 35.046875 171.425781 38.992188 " fill-opacity="1" fill-rule="nonzero"/><path fill="#4d4d4d" d="M 164.257812 30.132812 C 164.257812 30.179688 164.234375 30.238281 164.210938 30.28125 C 163.972656 33.597656 163.628906 36.730469 163.628906 40.101562 C 163.628906 41.929688 163.628906 43.78125 163.609375 45.621094 C 163.609375 46.148438 163.5625 48.171875 163.367188 49.152344 C 162.136719 48.84375 160.890625 48.570312 159.660156 48.308594 C 159.636719 48.261719 159.660156 48.214844 159.636719 48.171875 C 158.78125 45.234375 159.109375 42.03125 159.109375 39.015625 C 159.109375 35.550781 158.917969 32.089844 158.824219 28.613281 C 160.332031 28.957031 161.804688 29.34375 163.300781 29.800781 C 163.628906 29.917969 163.9375 30.019531 164.257812 30.132812 " fill-opacity="1" fill-rule="nonzero"/><path fill="#4d4d4d" d="M 168.539062 27.9375 C 161.109375 24.257812 150.960938 22.796875 142.878906 22.144531 C 135.460938 21.5625 126.511719 21.925781 118.363281 23.6875 C 117.800781 23.664062 117.253906 23.777344 116.773438 24.019531 C 113.601562 24.820312 110.554688 25.800781 107.804688 27.082031 C 107.710938 27.128906 107.609375 27.171875 107.519531 27.21875 C 110.816406 15.984375 132.253906 17.492188 140.789062 17.492188 C 147.113281 17.492188 165.410156 20.144531 168.539062 27.9375 " fill-opacity="1" fill-rule="nonzero"/><path fill="#4d4d4d" d="M 155.503906 39.015625 C 155.503906 41.839844 155.34375 44.71875 155.847656 47.496094 C 154.417969 47.199219 153.003906 46.96875 151.589844 46.71875 C 151.589844 46.695312 151.613281 46.695312 151.613281 46.671875 C 151.632812 40.363281 151.828125 33.894531 151.875 27.320312 C 152.980469 27.515625 154.089844 27.710938 155.21875 27.917969 C 155.285156 31.609375 155.503906 35.3125 155.503906 39.015625 " fill-opacity="1" fill-rule="nonzero"/><path fill="#4d4d4d" d="M 144.660156 26.109375 C 145.871094 26.328125 147.070312 26.523438 148.289062 26.738281 C 148.246094 33.378906 148.027344 39.746094 148.003906 46.148438 C 146.007812 45.859375 144.042969 45.585938 142.046875 45.394531 C 142.570312 38.855469 143.140625 32.523438 143.175781 25.917969 C 143.679688 25.972656 144.179688 26.019531 144.660156 26.109375 " fill-opacity="1" fill-rule="nonzero"/><path fill="#4d4d4d" d="M 139.570312 25.539062 C 139.570312 32.179688 138.988281 38.558594 138.460938 45.128906 C 137.136719 45.039062 135.835938 44.957031 134.523438 44.933594 C 134.570312 44.777344 134.617188 44.625 134.617188 44.433594 C 134.707031 41.597656 135.070312 38.796875 135.070312 35.941406 C 135.070312 32.441406 135.070312 28.957031 135.070312 25.46875 C 135.070312 25.4375 135.070312 25.4375 135.070312 25.414062 C 136.613281 25.414062 138.097656 25.4375 139.570312 25.539062 " fill-opacity="1" fill-rule="nonzero"/><path fill="#4d4d4d" d="M 132.664062 25.492188 C 132.664062 28.542969 132.664062 31.609375 132.664062 34.683594 C 132.664062 37.984375 131.660156 41.164062 131.535156 44.433594 C 131.535156 44.605469 131.578125 44.753906 131.613281 44.890625 C 129.902344 44.890625 128.167969 44.957031 126.464844 45.085938 C 126.578125 44.84375 126.660156 44.582031 126.660156 44.273438 C 126.683594 38.125 127.789062 30.714844 127.859375 25.871094 C 129.445312 25.699219 131.054688 25.5625 132.664062 25.492188 " fill-opacity="1" fill-rule="nonzero"/><path fill="#4d4d4d" d="M 124.230469 26.363281 C 124.101562 31.195312 123.074219 38.398438 123.054688 44.339844 C 123.054688 44.753906 123.167969 45.039062 123.339844 45.300781 C 122.449219 45.394531 121.511719 45.542969 120.578125 45.691406 C 119.824219 42.625 120.644531 38.902344 120.644531 35.769531 C 120.644531 32.808594 120.644531 30.785156 120.644531 26.980469 C 121.820312 26.761719 123.007812 26.542969 124.230469 26.363281 " fill-opacity="1" fill-rule="nonzero"/><path fill="#4d4d4d" d="M 115.839844 37.355469 C 115.839844 40.339844 115.90625 43.5625 116.605469 46.5 C 114.753906 46.9375 112.90625 47.449219 111.078125 48.042969 C 111.214844 47.78125 111.320312 47.496094 111.320312 47.128906 C 111.320312 42.464844 110.953125 35.425781 111.582031 29.503906 C 112.667969 29.070312 113.886719 28.695312 115.28125 28.28125 C 115.453125 28.234375 115.644531 28.191406 115.839844 28.132812 C 115.839844 31.550781 115.839844 34.25 115.839844 37.355469 " fill-opacity="1" fill-rule="nonzero"/><path fill="#4d4d4d" d="M 108.84375 48.820312 C 107.953125 49.128906 107.085938 49.460938 106.238281 49.828125 C 106.273438 46.320312 106.273438 42.820312 105.933594 39.3125 C 105.542969 35.503906 106.171875 33.242188 107.78125 31.675781 C 107.425781 37.09375 107.710938 42.992188 107.710938 47.128906 C 107.710938 48.023438 108.214844 48.570312 108.84375 48.820312 " fill-opacity="1" fill-rule="nonzero"/><path fill="#b3b3b3" d="M 119.136719 335.175781 C 121.410156 336.902344 123.476562 338.867188 125.746094 340.59375 C 126.535156 341.1875 127.765625 340.71875 128.210938 339.941406 C 128.761719 339.015625 128.347656 338.066406 127.5625 337.472656 C 125.300781 335.746094 123.222656 333.78125 120.953125 332.054688 C 120.164062 331.460938 118.945312 331.929688 118.488281 332.707031 C 117.949219 333.632812 118.351562 334.582031 119.136719 335.175781 " fill-opacity="1" fill-rule="nonzero"/><path fill="#b3b3b3" d="M 120.941406 329.152344 C 123.726562 330.457031 125.4375 332.992188 127.789062 334.890625 C 130.359375 336.980469 133.15625 338.765625 136.394531 339.578125 C 138.65625 340.125 139.613281 336.652344 137.355469 336.089844 C 134.214844 335.3125 131.441406 333.414062 129.070312 331.253906 C 127.003906 329.359375 125.359375 327.253906 122.757812 326.042969 C 120.667969 325.058594 118.828125 328.167969 120.941406 329.152344 " fill-opacity="1" fill-rule="nonzero"/><path fill="#b3b3b3" d="M 124.777344 321.046875 C 128.199219 324.339844 132.035156 327.105469 135.960938 329.757812 C 140.039062 332.5 142.992188 335.074219 147.808594 336.558594 C 150.046875 337.246094 150.996094 333.757812 148.769531 333.085938 C 144.84375 331.871094 142.136719 329.804688 138.863281 327.425781 C 134.914062 324.546875 130.871094 321.90625 127.332031 318.5 C 125.65625 316.886719 123.097656 319.4375 124.777344 321.046875 " fill-opacity="1" fill-rule="nonzero"/><path fill="#b3b3b3" d="M 138.964844 320.726562 C 143.472656 323.621094 147.433594 327.277344 152.195312 329.757812 C 154.25 330.832031 156.074219 327.710938 154.007812 326.636719 C 149.25 324.15625 145.289062 320.5 140.789062 317.609375 C 138.828125 316.351562 137.011719 319.484375 138.964844 320.726562 " fill-opacity="1" fill-rule="nonzero"/><path fill="#b3b3b3" d="M 153.105469 320.980469 C 152.71875 320.933594 153.277344 321.128906 153.371094 321.207031 C 153.644531 321.414062 153.894531 321.65625 154.144531 321.882812 C 154.660156 322.351562 155.195312 322.796875 155.800781 323.140625 C 157.820312 324.292969 159.636719 321.175781 157.617188 320.019531 C 155.984375 319.09375 155.117188 317.574219 153.105469 317.367188 C 152.125 317.265625 151.304688 318.257812 151.304688 319.175781 C 151.304688 320.226562 152.125 320.878906 153.105469 320.980469 " fill-opacity="1" fill-rule="nonzero"/><path fill="#b3b3b3" d="M 200.578125 121.757812 C 202.757812 121.859375 204.035156 125.355469 205.042969 126.886719 C 206.296875 128.832031 209.425781 127.023438 208.144531 125.058594 C 206.261719 122.15625 204.574219 118.316406 200.578125 118.15625 C 198.261719 118.054688 198.261719 121.664062 200.578125 121.757812 " fill-opacity="1" fill-rule="nonzero"/><path fill="#b3b3b3" d="M 193.660156 125.128906 C 198.078125 127.460938 201.242188 131.472656 203.054688 136.089844 C 203.886719 138.226562 207.382812 137.289062 206.523438 135.128906 C 204.378906 129.644531 200.75 124.796875 195.488281 122.007812 C 193.433594 120.921875 191.605469 124.042969 193.660156 125.128906 " fill-opacity="1" fill-rule="nonzero"/><path fill="#b3b3b3" d="M 184.953125 126.578125 C 185.125 128.796875 186.425781 130.28125 188.261719 131.425781 C 188.742188 131.722656 189.359375 132.878906 189.953125 133.644531 C 190.671875 134.570312 191.503906 135.289062 192.460938 135.964844 C 194.367188 137.300781 196.171875 134.167969 194.277344 132.84375 C 192.964844 131.917969 192.1875 130.601562 191.320312 129.277344 C 190.636719 128.25 188.671875 128.03125 188.558594 126.578125 C 188.386719 124.269531 184.78125 124.246094 184.953125 126.578125 " fill-opacity="1" fill-rule="nonzero"/><path fill="#b3b3b3" d="M 178.46875 131.929688 C 179.964844 132.453125 181.289062 133.402344 182.203125 134.707031 C 183.527344 136.605469 186.652344 134.796875 185.304688 132.890625 C 183.820312 130.761719 181.859375 129.3125 179.429688 128.441406 C 177.226562 127.664062 176.289062 131.164062 178.46875 131.929688 " fill-opacity="1" fill-rule="nonzero"/><path fill="#b3b3b3" d="M 119.972656 219.332031 C 120.769531 220.132812 121.582031 220.945312 122.378906 221.746094 C 124.023438 223.390625 126.570312 220.84375 124.925781 219.183594 C 124.125 218.386719 123.328125 217.585938 122.515625 216.785156 C 120.871094 215.140625 118.328125 217.6875 119.972656 219.332031 " fill-opacity="1" fill-rule="nonzero"/><path fill="#b3b3b3" d="M 122.378906 211.515625 C 123.507812 212.601562 124.84375 213.4375 125.988281 214.523438 C 127.664062 216.132812 130.210938 213.585938 128.53125 211.972656 C 127.402344 210.886719 126.054688 210.039062 124.925781 208.957031 C 123.246094 207.34375 120.691406 209.902344 122.378906 211.515625 " fill-opacity="1" fill-rule="nonzero"/><path fill="#b3b3b3" d="M 123.339844 204.566406 C 125.632812 205.777344 127.195312 207.890625 128.988281 209.710938 C 130.621094 211.367188 133.167969 208.804688 131.535156 207.148438 C 129.523438 205.113281 127.734375 202.816406 125.164062 201.457031 C 123.109375 200.371094 121.285156 203.480469 123.339844 204.566406 " fill-opacity="1" fill-rule="nonzero"/><path fill="#b3b3b3" d="M 126.773438 196.929688 C 128.816406 197.523438 130.074219 199.765625 131.761719 200.964844 C 133.65625 202.304688 135.460938 199.171875 133.578125 197.84375 C 132.699219 197.214844 132 196.324219 131.238281 195.570312 C 130.234375 194.585938 129.078125 193.832031 127.734375 193.445312 C 125.496094 192.792969 124.546875 196.28125 126.773438 196.929688 " fill-opacity="1" fill-rule="nonzero"/><path fill="#b3b3b3" d="M 132.355469 187.71875 C 133.40625 188.265625 134.171875 189.011719 134.992188 189.84375 C 136.648438 191.488281 139.191406 188.941406 137.550781 187.296875 C 136.523438 186.253906 135.484375 185.285156 134.183594 184.597656 C 132.117188 183.523438 130.300781 186.644531 132.355469 187.71875 " fill-opacity="1" fill-rule="nonzero"/><path fill="#b3b3b3" d="M 134.46875 178.941406 C 134.46875 179.339844 134.46875 179.738281 134.46875 180.140625 C 134.46875 182.472656 138.074219 182.472656 138.074219 180.140625 C 138.074219 179.738281 138.074219 179.339844 138.074219 178.941406 C 138.074219 176.609375 134.46875 176.609375 134.46875 178.941406 " fill-opacity="1" fill-rule="nonzero"/><path fill="#b3b3b3" d="M 226.078125 280.964844 C 227.308594 282.804688 228.578125 284.722656 230.402344 286.050781 C 232.574219 287.617188 234.660156 289.695312 236.566406 291.558594 C 238.234375 293.183594 240.789062 290.632812 239.125 289.011719 C 235.746094 285.707031 231.832031 283.101562 229.183594 279.136719 C 227.902344 277.214844 224.777344 279.019531 226.078125 280.964844 " fill-opacity="1" fill-rule="nonzero"/><path fill="#b3b3b3" d="M 219.457031 285.777344 C 222.046875 289.492188 224.960938 293.171875 228.15625 296.371094 C 229.796875 298.015625 232.355469 295.46875 230.710938 293.824219 C 227.734375 290.839844 224.980469 287.410156 222.574219 283.957031 C 221.261719 282.0625 218.121094 283.867188 219.457031 285.777344 " fill-opacity="1" fill-rule="nonzero"/><path fill="#b3b3b3" d="M 213.863281 291.960938 C 214.789062 294.347656 216.761719 295.84375 218.542969 297.582031 C 220.210938 299.207031 222.757812 296.65625 221.089844 295.023438 C 219.878906 293.832031 217.972656 292.644531 217.347656 291.011719 C 216.523438 288.851562 213.03125 289.789062 213.863281 291.960938 " fill-opacity="1" fill-rule="nonzero"/><path fill="#b3b3b3" d="M 208.648438 293.605469 C 209.46875 295.125 210.714844 296.359375 211.933594 297.582031 C 213.578125 299.230469 216.125 296.679688 214.480469 295.023438 C 213.476562 294.015625 212.4375 293.035156 211.753906 291.777344 C 210.644531 289.730469 207.53125 291.558594 208.648438 293.605469 " fill-opacity="1" fill-rule="nonzero"/><path fill="#b3b3b3" d="M 201.84375 297.984375 C 202.039062 299.207031 203.089844 300.257812 204.3125 300.453125 C 205.28125 300.601562 206.25 300.210938 206.523438 299.183594 C 206.765625 298.324219 206.238281 297.113281 205.269531 296.964844 C 205.210938 297.070312 205.222656 297.078125 205.328125 297.023438 C 205.179688 296.050781 203.980469 295.527344 203.113281 295.765625 C 202.085938 296.050781 201.695312 297.011719 201.84375 297.984375 " fill-opacity="1" fill-rule="nonzero"/><path fill="#ffffff" d="M 120.519531 110.863281 C 134.191406 105.34375 149.304688 102.371094 163.800781 100.027344 C 166.085938 99.660156 165.113281 96.175781 162.84375 96.554688 C 148.347656 98.894531 133.234375 101.855469 119.570312 107.386719 C 117.4375 108.246094 118.363281 111.730469 120.519531 110.863281 " fill-opacity="1" fill-rule="nonzero"/><path fill="#ffffff" d="M 172.808594 97.628906 C 174.589844 97.078125 176.449219 96.964844 178.21875 96.414062 C 180.445312 95.742188 179.496094 92.253906 177.269531 92.941406 C 175.488281 93.476562 173.628906 93.59375 171.859375 94.140625 C 169.632812 94.828125 170.582031 98.3125 172.808594 97.628906 " fill-opacity="1" fill-rule="nonzero"/><path fill="#ffffff" d="M 187.964844 93.476562 C 190.28125 93.476562 190.28125 89.867188 187.964844 89.867188 C 185.636719 89.867188 185.636719 93.476562 187.964844 93.476562 " fill-opacity="1" fill-rule="nonzero"/><path fill="#ffffff" d="M 110.132812 72.765625 C 112.710938 71.5 115.371094 70.425781 117.949219 69.15625 C 120.039062 68.125 118.203125 65.007812 116.125 66.035156 C 113.554688 67.304688 110.886719 68.378906 108.316406 69.648438 C 106.230469 70.675781 108.054688 73.796875 110.132812 72.765625 " fill-opacity="1" fill-rule="nonzero"/><path fill="#ffffff" d="M 111.9375 79.992188 C 113.84375 78.78125 116.042969 78.183594 117.949219 76.972656 C 119.902344 75.738281 118.097656 72.605469 116.125 73.851562 C 114.230469 75.066406 112.015625 75.660156 110.121094 76.871094 C 108.167969 78.117188 109.972656 81.238281 111.9375 79.992188 " fill-opacity="1" fill-rule="nonzero"/><path fill="#ffffff" d="M 113.316406 86.792969 C 114.890625 86.289062 116.535156 86.082031 118.121094 85.589844 C 120.324219 84.894531 119.390625 81.398438 117.164062 82.105469 C 115.578125 82.597656 113.933594 82.8125 112.359375 83.304688 C 110.144531 84.003906 111.089844 87.488281 113.316406 86.792969 " fill-opacity="1" fill-rule="nonzero"/><path fill="#ffffff" d="M 259.488281 268.621094 C 260.890625 268.621094 262.285156 268.621094 263.6875 268.621094 C 266.015625 268.621094 266.015625 265.007812 263.6875 265.007812 C 262.285156 265.007812 260.890625 265.007812 259.488281 265.007812 C 257.160156 265.007812 257.160156 268.621094 259.488281 268.621094 " fill-opacity="1" fill-rule="nonzero"/><path fill="#ffffff" d="M 258.164062 263.132812 C 260.148438 262.480469 262.179688 261.980469 264.167969 261.328125 C 266.371094 260.605469 265.433594 257.121094 263.207031 257.851562 C 261.222656 258.492188 259.191406 259.007812 257.203125 259.648438 C 255 260.367188 255.949219 263.851562 258.164062 263.132812 " fill-opacity="1" fill-rule="nonzero"/><path fill="#ffffff" d="M 257.683594 255.976562 C 257.878906 255.976562 258.082031 255.976562 258.277344 255.976562 C 260.605469 255.976562 260.605469 252.367188 258.277344 252.367188 C 258.082031 252.367188 257.878906 252.367188 257.683594 252.367188 C 255.355469 252.367188 255.355469 255.976562 257.683594 255.976562 " fill-opacity="1" fill-rule="nonzero"/><path fill="#ffffff" d="M 240.972656 128.921875 C 242.355469 129.425781 243.371094 130.453125 244.386719 131.460938 C 246.03125 133.105469 248.585938 130.558594 246.929688 128.910156 C 245.449219 127.425781 243.929688 126.167969 241.933594 125.4375 C 239.742188 124.636719 238.804688 128.121094 240.972656 128.921875 " fill-opacity="1" fill-rule="nonzero"/><path fill="#ffffff" d="M 240.972656 136.742188 C 241.933594 137.0625 243.550781 137.378906 244.101562 138.316406 C 245.289062 140.328125 248.402344 138.511719 247.214844 136.5 C 246.097656 134.601562 243.90625 133.917969 241.933594 133.265625 C 239.71875 132.523438 238.78125 136.007812 240.972656 136.742188 " fill-opacity="1" fill-rule="nonzero"/><path fill="#ffffff" d="M 241.519531 142.101562 C 241.636719 142.867188 242.058594 143.554688 242.582031 144.101562 C 244.179688 145.804688 246.726562 143.246094 245.128906 141.554688 C 245.058594 141.472656 245.035156 141.4375 244.992188 141.140625 C 244.855469 140.167969 243.632812 139.644531 242.777344 139.882812 C 241.75 140.167969 241.371094 141.128906 241.519531 142.101562 " fill-opacity="1" fill-rule="nonzero"/><path fill="#ffffff" d="M 247.753906 114.898438 C 251.417969 117.058594 255.515625 118.085938 258.632812 121.070312 C 260.386719 122.738281 263.332031 124.292969 264.019531 126.808594 C 264.589844 128.898438 264.886719 130.886719 265.742188 132.898438 C 266.644531 135.039062 269.75 133.199219 268.859375 131.082031 C 268.070312 129.230469 268.21875 126.078125 267.054688 124.464844 C 265.753906 122.660156 264.316406 120.957031 262.5 119.652344 C 260.410156 118.144531 258.9375 116.269531 256.578125 115.117188 C 254.257812 113.984375 251.804688 113.09375 249.578125 111.777344 C 247.570312 110.589844 245.753906 113.710938 247.753906 114.898438 " fill-opacity="1" fill-rule="nonzero"/><path fill="#ffffff" d="M 267.898438 142.832031 C 270.226562 142.832031 270.226562 139.222656 267.898438 139.222656 C 265.570312 139.222656 265.570312 142.832031 267.898438 142.832031 " fill-opacity="1" fill-rule="nonzero"/><path fill="#ffffff" d="M 237.84375 106.121094 C 237.84375 106.507812 237.84375 106.921875 237.84375 107.320312 C 237.84375 109.640625 241.453125 109.640625 241.453125 107.320312 C 241.453125 106.921875 241.453125 106.507812 241.453125 106.121094 C 241.453125 103.789062 237.84375 103.789062 237.84375 106.121094 " fill-opacity="1" fill-rule="nonzero"/><path fill="#ffffff" d="M 253.347656 354.011719 C 255.125 353.429688 256.90625 352.835938 258.585938 352.023438 C 260.683594 351.019531 258.859375 347.910156 256.769531 348.914062 C 255.367188 349.589844 253.859375 350.046875 252.386719 350.539062 C 250.195312 351.269531 251.144531 354.753906 253.347656 354.011719 " fill-opacity="1" fill-rule="nonzero"/><path fill="#ffffff" d="M 252.945312 349.335938 C 253.949219 348.332031 254.933594 347.292969 256.1875 346.605469 C 258.230469 345.496094 256.40625 342.375 254.363281 343.496094 C 252.84375 344.320312 251.609375 345.566406 250.390625 346.789062 C 248.746094 348.433594 251.304688 350.984375 252.945312 349.335938 " fill-opacity="1" fill-rule="nonzero"/><path fill="#ffffff" d="M 248.667969 345.65625 C 250.996094 345.65625 250.996094 342.046875 248.667969 342.046875 C 246.335938 342.046875 246.335938 345.65625 248.667969 345.65625 " fill-opacity="1" fill-rule="nonzero"/><path fill="#ffffff" d="M 226.429688 143.425781 C 226.429688 155.015625 225.769531 166.789062 226.726562 178.335938 C 227.011719 181.796875 227.308594 185.328125 227.996094 188.746094 C 228.542969 191.5 229.789062 200.199219 228.179688 202.703125 C 226.910156 204.667969 230.039062 206.476562 231.292969 204.53125 C 234.261719 199.902344 232.183594 191.339844 231.167969 186.277344 C 228.417969 172.472656 230.039062 157.40625 230.039062 143.425781 C 230.039062 141.09375 226.429688 141.09375 226.429688 143.425781 " fill-opacity="1" fill-rule="nonzero"/><path fill="#ffffff" d="M 229.136719 212.339844 C 229.160156 213.457031 229.398438 214.542969 229.433594 215.652344 C 229.5 217.972656 233.109375 217.984375 233.039062 215.652344 C 233.007812 214.542969 232.765625 213.457031 232.742188 212.339844 C 232.664062 210.019531 229.066406 210.019531 229.136719 212.339844 " fill-opacity="1" fill-rule="nonzero"/><path fill="#ffffff" d="M 229.136719 222.578125 C 229.136719 222.875 229.136719 223.175781 229.136719 223.484375 C 229.136719 225.804688 232.742188 225.804688 232.742188 223.484375 C 232.742188 223.175781 232.742188 222.875 232.742188 222.578125 C 232.742188 220.246094 229.136719 220.246094 229.136719 222.578125 " fill-opacity="1" fill-rule="nonzero"/><path fill="#ffffff" d="M 228.234375 135.609375 C 228.222656 134.730469 228.210938 133.835938 227.871094 133.015625 C 227.480469 132.113281 226.683594 131.472656 225.644531 131.757812 C 224.789062 131.996094 224.011719 133.070312 224.386719 133.976562 C 224.617188 134.535156 224.617188 135.003906 224.628906 135.609375 C 224.628906 137.929688 228.234375 137.929688 228.234375 135.609375 " fill-opacity="1" fill-rule="nonzero"/></svg>